<?xml version="1.0" encoding="iso-8859-1"?>
<!-- Generator: Adobe Illustrator 19.0.0, SVG Export Plug-In . SVG Version: 6.00 Build 0)  -->
<svg version="1.1" id="Layer_1" xmlns="http://www.w3.org/2000/svg" xmlns:xlink="http://www.w3.org/1999/xlink" x="0px" y="0px"
	 viewBox="0 0 512.001 512.001" style="enable-background:new 0 0 512.001 512.001;" xml:space="preserve">
<circle style="fill:#EC6907;" cx="256.003" cy="318.054" r="186.345"/>
<path style="fill:#08AA6E;" d="M276.633,34.834c22.639-17.831,61.397-6.381,61.397-6.381s2.054,40.362-20.584,58.194
	c-22.639,17.832-61.397,6.382-61.397,6.382S253.995,52.667,276.633,34.834z"/>
<g>
	<path style="fill:#53180F;" d="M263.607,124.263v-21.769c5.176,0.91,11.999,1.761,19.443,1.761
		c16.148,0,29.303-3.914,39.103-11.632c25.436-20.034,23.566-62.748,23.474-64.556l-0.274-5.382l-5.168-1.526
		c-0.544-0.16-13.486-3.931-29.158-3.931c-16.147,0-29.302,3.913-39.101,11.631c-4.681,3.688-8.433,8.144-11.447,12.97
		C252.393,17.556,229.477,0,202.522,0h-26.274v15.214h26.274c25.293,0,45.872,20.578,45.872,45.872v28.235
		c-0.007,0.709-0.005,1.336,0,1.877v33.066c-103.432,4.01-186.343,89.391-186.343,193.787c0,106.944,87.005,193.95,193.95,193.95
		s193.949-87.005,193.949-193.95C449.949,213.655,367.038,128.274,263.607,124.263z M265.327,72.024
		c1.872-9.961,6.172-23.462,16.013-31.214c7.051-5.554,17.038-8.368,29.688-8.368c7.727,0,14.78,1.093,19.382,2.022
		c-0.139,3.764-0.55,9.097-1.658,14.995c-1.872,9.961-6.171,23.461-16.012,31.213c-7.051,5.554-17.04,8.369-29.689,8.369
		c-7.726,0-14.779-1.093-19.381-2.022C263.808,83.256,264.218,77.923,265.327,72.024z M256,496.786
		c-98.555,0-178.737-80.18-178.737-178.737S157.444,139.313,256,139.313s178.736,80.181,178.736,178.737
		S354.555,496.786,256,496.786z"/>
	<path style="fill:#53180F;" d="M256,466.359v15.214c25.974,0,50.825-5.939,73.867-17.653l-6.895-13.561
		C302.087,460.976,279.555,466.359,256,466.359z"/>
	<path style="fill:#53180F;" d="M404.309,318.051c0,48.918-24.195,94.694-64.721,122.451l8.598,12.552
		c44.67-30.595,71.337-81.064,71.337-135.003H404.309z"/>
</g>
<g>
</g>
<g>
</g>
<g>
</g>
<g>
</g>
<g>
</g>
<g>
</g>
<g>
</g>
<g>
</g>
<g>
</g>
<g>
</g>
<g>
</g>
<g>
</g>
<g>
</g>
<g>
</g>
<g>
</g>
</svg>
